<svg xmlns="http://www.w3.org/2000/svg" width="21.947" height="21.947" viewBox="330 723.053 21.947 21.947"><g data-name="privacy-settings"><path d="M338.779 731.195a2.195 2.195 0 1 1 0 .1z" stroke-linejoin="round" stroke-linecap="round" stroke-width="1.5" stroke="#006cff" fill="transparent" data-name="Ellipse 2"/><path d="M351.947 735.49v-2.927l-3.185-.531a7.993 7.993 0 0 0-.878-2.103l1.877-2.633-2.057-2.063-2.633 1.875a7.993 7.993 0 0 0-2.103-.87l-.531-3.185h-2.926l-.532 3.185a7.993 7.993 0 0 0-2.102.87l-2.634-1.875-2.063 2.063 1.876 2.633a7.993 7.993 0 0 0-.87 2.103l-3.186.531v2.926l3.185.532c.189.738.482 1.446.87 2.102l-1.875 2.634 2.063 2.063 2.634-1.876a7.993 7.993 0 0 0 2.102.878l.532 3.178h2.926l.53-3.185a7.993 7.993 0 0 0 2.104-.878l2.633 1.877 2.063-2.057-1.876-2.634a7.993 7.993 0 0 0 .878-2.102l3.178-.532Z" stroke-linejoin="round" stroke-linecap="round" stroke-width="1.5" stroke="#006cff" fill="transparent" data-name="Path 10"/><path d="M340.974 735.49v2.926" stroke-linejoin="round" stroke-linecap="round" stroke-width="1.5" stroke="#006cff" fill="transparent" data-name="Line 3"/></g></svg>